<?xml version="1.0" standalone="no"?>
<!DOCTYPE svg PUBLIC "-//W3C//DTD SVG 1.1//EN" "http://www.w3.org/Graphics/SVG/1.1/DTD/svg11.dtd">
<svg version="1.1" width="1200" height="1142" onload="init(evt)" viewBox="0 0 1200 1142" xmlns="http://www.w3.org/2000/svg" xmlns:xlink="http://www.w3.org/1999/xlink">
<!-- Flame graph stack visualization. See https://github.com/brendangregg/FlameGraph for latest version, and http://www.brendangregg.com/flamegraphs.html for examples. -->
<!-- NOTES:  -->
<defs>
	<linearGradient id="background" y1="0" y2="1" x1="0" x2="0" >
		<stop stop-color="#eeeeee" offset="5%" />
		<stop stop-color="#eeeeb0" offset="95%" />
	</linearGradient>
</defs>
<style type="text/css">
	text { font-family:Verdana; font-size:12px; fill:rgb(0,0,0); }
	#search, #ignorecase { opacity:0.1; cursor:pointer; }
	#search:hover, #search.show, #ignorecase:hover, #ignorecase.show { opacity:1; }
	#subtitle { text-anchor:middle; font-color:rgb(160,160,160); }
	#title { text-anchor:middle; font-size:17px}
	#unzoom { cursor:pointer; }
	#frames > *:hover { stroke:black; stroke-width:0.5; cursor:pointer; }
	.hide { display:none; }
	.parent { opacity:0.5; }
</style>
<script type="text/ecmascript">
<![CDATA[
	"use strict";
	var details, searchbtn, unzoombtn, matchedtxt, svg, searching, currentSearchTerm, ignorecase, ignorecaseBtn;
	function init(evt) {
		details = document.getElementById("details").firstChild;
		searchbtn = document.getElementById("search");
		ignorecaseBtn = document.getElementById("ignorecase");
		unzoombtn = document.getElementById("unzoom");
		matchedtxt = document.getElementById("matched");
		svg = document.getElementsByTagName("svg")[0];
		searching = 0;
		currentSearchTerm = null;

		// use GET parameters to restore a flamegraphs state.
		var params = get_params();
		if (params.x && params.y)
			zoom(find_group(document.querySelector('[x="' + params.x + '"][y="' + params.y + '"]')));
                if (params.s) search(params.s);
	}

	// event listeners
	window.addEventListener("click", function(e) {
		var target = find_group(e.target);
		if (target) {
			if (target.nodeName == "a") {
				if (e.ctrlKey === false) return;
				e.preventDefault();
			}
			if (target.classList.contains("parent")) unzoom(true);
			zoom(target);
			if (!document.querySelector('.parent')) {
				// we have basically done a clearzoom so clear the url
				var params = get_params();
				if (params.x) delete params.x;
				if (params.y) delete params.y;
				history.replaceState(null, null, parse_params(params));
				unzoombtn.classList.add("hide");
				return;
			}

			// set parameters for zoom state
			var el = target.querySelector("rect");
			if (el && el.attributes && el.attributes.y && el.attributes._orig_x) {
				var params = get_params()
				params.x = el.attributes._orig_x.value;
				params.y = el.attributes.y.value;
				history.replaceState(null, null, parse_params(params));
			}
		}
		else if (e.target.id == "unzoom") clearzoom();
		else if (e.target.id == "search") search_prompt();
		else if (e.target.id == "ignorecase") toggle_ignorecase();
	}, false)

	// mouse-over for info
	// show
	window.addEventListener("mouseover", function(e) {
		var target = find_group(e.target);
		if (target) details.nodeValue = "Function: " + g_to_text(target);
	}, false)

	// clear
	window.addEventListener("mouseout", function(e) {
		var target = find_group(e.target);
		if (target) details.nodeValue = ' ';
	}, false)

	// ctrl-F for search
	// ctrl-I to toggle case-sensitive search
	window.addEventListener("keydown",function (e) {
		if (e.keyCode === 114 || (e.ctrlKey && e.keyCode === 70)) {
			e.preventDefault();
			search_prompt();
		}
		else if (e.ctrlKey && e.keyCode === 73) {
			e.preventDefault();
			toggle_ignorecase();
		}
	}, false)

	// functions
	function get_params() {
		var params = {};
		var paramsarr = window.location.search.substr(1).split('&');
		for (var i = 0; i < paramsarr.length; ++i) {
			var tmp = paramsarr[i].split("=");
			if (!tmp[0] || !tmp[1]) continue;
			params[tmp[0]]  = decodeURIComponent(tmp[1]);
		}
		return params;
	}
	function parse_params(params) {
		var uri = "?";
		for (var key in params) {
			uri += key + '=' + encodeURIComponent(params[key]) + '&';
		}
		if (uri.slice(-1) == "&")
			uri = uri.substring(0, uri.length - 1);
		if (uri == '?')
			uri = window.location.href.split('?')[0];
		return uri;
	}
	function find_child(node, selector) {
		var children = node.querySelectorAll(selector);
		if (children.length) return children[0];
	}
	function find_group(node) {
		var parent = node.parentElement;
		if (!parent) return;
		if (parent.id == "frames") return node;
		return find_group(parent);
	}
	function orig_save(e, attr, val) {
		if (e.attributes["_orig_" + attr] != undefined) return;
		if (e.attributes[attr] == undefined) return;
		if (val == undefined) val = e.attributes[attr].value;
		e.setAttribute("_orig_" + attr, val);
	}
	function orig_load(e, attr) {
		if (e.attributes["_orig_"+attr] == undefined) return;
		e.attributes[attr].value = e.attributes["_orig_" + attr].value;
		e.removeAttribute("_orig_"+attr);
	}
	function g_to_text(e) {
		var text = find_child(e, "title").firstChild.nodeValue;
		return (text)
	}
	function g_to_func(e) {
		var func = g_to_text(e);
		// if there's any manipulation we want to do to the function
		// name before it's searched, do it here before returning.
		return (func);
	}
	function update_text(e) {
		var r = find_child(e, "rect");
		var t = find_child(e, "text");
		var w = parseFloat(r.attributes.width.value) -3;
		var txt = find_child(e, "title").textContent.replace(/\([^(]*\)$/,"");
		t.attributes.x.value = parseFloat(r.attributes.x.value) + 3;

		// Smaller than this size won't fit anything
		if (w < 2 * 12 * 0.59) {
			t.textContent = "";
			return;
		}

		t.textContent = txt;
		var sl = t.getSubStringLength(0, txt.length);
		// check if only whitespace or if we can fit the entire string into width w
		if (/^ *$/.test(txt) || sl < w)
			return;

		// this isn't perfect, but gives a good starting point
		// and avoids calling getSubStringLength too often
		var start = Math.floor((w/sl) * txt.length);
		for (var x = start; x > 0; x = x-2) {
			if (t.getSubStringLength(0, x + 2) <= w) {
				t.textContent = txt.substring(0, x) + "..";
				return;
			}
		}
		t.textContent = "";
	}

	// zoom
	function zoom_reset(e) {
		if (e.attributes != undefined) {
			orig_load(e, "x");
			orig_load(e, "width");
		}
		if (e.childNodes == undefined) return;
		for (var i = 0, c = e.childNodes; i < c.length; i++) {
			zoom_reset(c[i]);
		}
	}
	function zoom_child(e, x, ratio) {
		if (e.attributes != undefined) {
			if (e.attributes.x != undefined) {
				orig_save(e, "x");
				e.attributes.x.value = (parseFloat(e.attributes.x.value) - x - 10) * ratio + 10;
				if (e.tagName == "text")
					e.attributes.x.value = find_child(e.parentNode, "rect[x]").attributes.x.value + 3;
			}
			if (e.attributes.width != undefined) {
				orig_save(e, "width");
				e.attributes.width.value = parseFloat(e.attributes.width.value) * ratio;
			}
		}

		if (e.childNodes == undefined) return;
		for (var i = 0, c = e.childNodes; i < c.length; i++) {
			zoom_child(c[i], x - 10, ratio);
		}
	}
	function zoom_parent(e) {
		if (e.attributes) {
			if (e.attributes.x != undefined) {
				orig_save(e, "x");
				e.attributes.x.value = 10;
			}
			if (e.attributes.width != undefined) {
				orig_save(e, "width");
				e.attributes.width.value = parseInt(svg.width.baseVal.value) - (10 * 2);
			}
		}
		if (e.childNodes == undefined) return;
		for (var i = 0, c = e.childNodes; i < c.length; i++) {
			zoom_parent(c[i]);
		}
	}
	function zoom(node) {
		var attr = find_child(node, "rect").attributes;
		var width = parseFloat(attr.width.value);
		var xmin = parseFloat(attr.x.value);
		var xmax = parseFloat(xmin + width);
		var ymin = parseFloat(attr.y.value);
		var ratio = (svg.width.baseVal.value - 2 * 10) / width;

		// XXX: Workaround for JavaScript float issues (fix me)
		var fudge = 0.0001;

		unzoombtn.classList.remove("hide");

		var el = document.getElementById("frames").children;
		for (var i = 0; i < el.length; i++) {
			var e = el[i];
			var a = find_child(e, "rect").attributes;
			var ex = parseFloat(a.x.value);
			var ew = parseFloat(a.width.value);
			var upstack;
			// Is it an ancestor
			if (0 == 0) {
				upstack = parseFloat(a.y.value) > ymin;
			} else {
				upstack = parseFloat(a.y.value) < ymin;
			}
			if (upstack) {
				// Direct ancestor
				if (ex <= xmin && (ex+ew+fudge) >= xmax) {
					e.classList.add("parent");
					zoom_parent(e);
					update_text(e);
				}
				// not in current path
				else
					e.classList.add("hide");
			}
			// Children maybe
			else {
				// no common path
				if (ex < xmin || ex + fudge >= xmax) {
					e.classList.add("hide");
				}
				else {
					zoom_child(e, xmin, ratio);
					update_text(e);
				}
			}
		}
		search();
	}
	function unzoom(dont_update_text) {
		unzoombtn.classList.add("hide");
		var el = document.getElementById("frames").children;
		for(var i = 0; i < el.length; i++) {
			el[i].classList.remove("parent");
			el[i].classList.remove("hide");
			zoom_reset(el[i]);
			if(!dont_update_text) update_text(el[i]);
		}
		search();
	}
	function clearzoom() {
		unzoom();

		// remove zoom state
		var params = get_params();
		if (params.x) delete params.x;
		if (params.y) delete params.y;
		history.replaceState(null, null, parse_params(params));
	}

	// search
	function toggle_ignorecase() {
		ignorecase = !ignorecase;
		if (ignorecase) {
			ignorecaseBtn.classList.add("show");
		} else {
			ignorecaseBtn.classList.remove("show");
		}
		reset_search();
		search();
	}
	function reset_search() {
		var el = document.querySelectorAll("#frames rect");
		for (var i = 0; i < el.length; i++) {
			orig_load(el[i], "fill")
		}
		var params = get_params();
		delete params.s;
		history.replaceState(null, null, parse_params(params));
	}
	function search_prompt() {
		if (!searching) {
			var term = prompt("Enter a search term (regexp " +
			    "allowed, eg: ^ext4_)"
			    + (ignorecase ? ", ignoring case" : "")
			    + "\nPress Ctrl-i to toggle case sensitivity", "");
			if (term != null) search(term);
		} else {
			reset_search();
			searching = 0;
			currentSearchTerm = null;
			searchbtn.classList.remove("show");
			searchbtn.firstChild.nodeValue = "Search"
			matchedtxt.classList.add("hide");
			matchedtxt.firstChild.nodeValue = ""
		}
	}
	function search(term) {
		if (term) currentSearchTerm = term;
		if (currentSearchTerm === null) return;

		var re = new RegExp(currentSearchTerm, ignorecase ? 'i' : '');
		var el = document.getElementById("frames").children;
		var matches = new Object();
		var maxwidth = 0;
		for (var i = 0; i < el.length; i++) {
			var e = el[i];
			var func = g_to_func(e);
			var rect = find_child(e, "rect");
			if (func == null || rect == null)
				continue;

			// Save max width. Only works as we have a root frame
			var w = parseFloat(rect.attributes.width.value);
			if (w > maxwidth)
				maxwidth = w;

			if (func.match(re)) {
				// highlight
				var x = parseFloat(rect.attributes.x.value);
				orig_save(rect, "fill");
				rect.attributes.fill.value = "rgb(230,0,230)";

				// remember matches
				if (matches[x] == undefined) {
					matches[x] = w;
				} else {
					if (w > matches[x]) {
						// overwrite with parent
						matches[x] = w;
					}
				}
				searching = 1;
			}
		}
		if (!searching)
			return;
		var params = get_params();
		params.s = currentSearchTerm;
		history.replaceState(null, null, parse_params(params));

		searchbtn.classList.add("show");
		searchbtn.firstChild.nodeValue = "Reset Search";

		// calculate percent matched, excluding vertical overlap
		var count = 0;
		var lastx = -1;
		var lastw = 0;
		var keys = Array();
		for (k in matches) {
			if (matches.hasOwnProperty(k))
				keys.push(k);
		}
		// sort the matched frames by their x location
		// ascending, then width descending
		keys.sort(function(a, b){
			return a - b;
		});
		// Step through frames saving only the biggest bottom-up frames
		// thanks to the sort order. This relies on the tree property
		// where children are always smaller than their parents.
		var fudge = 0.0001;	// JavaScript floating point
		for (var k in keys) {
			var x = parseFloat(keys[k]);
			var w = matches[keys[k]];
			if (x >= lastx + lastw - fudge) {
				count += w;
				lastx = x;
				lastw = w;
			}
		}
		// display matched percent
		matchedtxt.classList.remove("hide");
		var pct = 100 * count / maxwidth;
		if (pct != 100) pct = pct.toFixed(1)
		matchedtxt.firstChild.nodeValue = "Matched: " + pct + "%";
	}
]]>
</script>
<rect x="0.0" y="0" width="1200.0" height="1142.0" fill="url(#background)"  />
<text id="title" x="600.00" y="24" >Flame Graph</text>
<text id="details" x="10.00" y="1125" > </text>
<text id="unzoom" x="10.00" y="24" class="hide">Reset Zoom</text>
<text id="search" x="1090.00" y="24" >Search</text>
<text id="ignorecase" x="1174.00" y="24" >ic</text>
<text id="matched" x="1090.00" y="1125" > </text>
<g id="frames">
<g >
<title>[[kernel.kallsyms]] (80,808,080 samples, 8.51%)</title><rect x="650.2" y="741" width="100.4" height="15.0" fill="rgb(213,39,9)" rx="2" ry="2" />
<text  x="653.21" y="751.5" >[[kernel.kal..</text>
</g>
<g >
<title>[kube-apiserver] (191,919,190 samples, 20.21%)</title><rect x="951.5" y="725" width="238.5" height="15.0" fill="rgb(240,162,38)" rx="2" ry="2" />
<text  x="954.49" y="735.5" >[kube-apiserver]</text>
</g>
<g >
<title>[[kernel.kallsyms]] (10,101,010 samples, 1.06%)</title><rect x="800.9" y="709" width="12.5" height="15.0" fill="rgb(213,39,9)" rx="2" ry="2" />
<text  x="803.85" y="719.5" ></text>
</g>
<g >
<title>[kube-apiserver] (60,606,060 samples, 6.38%)</title><rect x="1114.7" y="181" width="75.3" height="15.0" fill="rgb(240,162,38)" rx="2" ry="2" />
<text  x="1117.68" y="191.5" >[kube-ap..</text>
</g>
<g >
<title>[kube-apiserver] (222,222,220 samples, 23.40%)</title><rect x="913.8" y="757" width="276.2" height="15.0" fill="rgb(240,162,38)" rx="2" ry="2" />
<text  x="916.83" y="767.5" >[kube-apiserver]</text>
</g>
<g >
<title>[kube-apiserver] (70,707,070 samples, 7.45%)</title><rect x="1102.1" y="421" width="87.9" height="15.0" fill="rgb(240,162,38)" rx="2" ry="2" />
<text  x="1105.13" y="431.5" >[kube-apis..</text>
</g>
<g >
<title>[[kernel.kallsyms]] (10,101,010 samples, 1.06%)</title><rect x="800.9" y="693" width="12.5" height="15.0" fill="rgb(213,39,9)" rx="2" ry="2" />
<text  x="803.85" y="703.5" ></text>
</g>
<g >
<title>[[kernel.kallsyms]] (10,101,010 samples, 1.06%)</title><rect x="863.6" y="805" width="12.6" height="15.0" fill="rgb(213,39,9)" rx="2" ry="2" />
<text  x="866.62" y="815.5" ></text>
</g>
<g >
<title>[[kernel.kallsyms]] (10,101,010 samples, 1.06%)</title><rect x="800.9" y="725" width="12.5" height="15.0" fill="rgb(213,39,9)" rx="2" ry="2" />
<text  x="803.85" y="735.5" ></text>
</g>
<g >
<title>[kube-apiserver] (232,323,230 samples, 24.47%)</title><rect x="901.3" y="773" width="288.7" height="15.0" fill="rgb(240,162,38)" rx="2" ry="2" />
<text  x="904.28" y="783.5" >[kube-apiserver]</text>
</g>
<g >
<title>[[kernel.kallsyms]] (80,808,080 samples, 8.51%)</title><rect x="537.2" y="709" width="100.5" height="15.0" fill="rgb(213,39,9)" rx="2" ry="2" />
<text  x="540.23" y="719.5" >[[kernel.kal..</text>
</g>
<g >
<title>[[kernel.kallsyms]] (10,101,010 samples, 1.06%)</title><rect x="738.1" y="645" width="12.5" height="15.0" fill="rgb(213,39,9)" rx="2" ry="2" />
<text  x="741.09" y="655.5" ></text>
</g>
<g >
<title>[[kernel.kallsyms]] (10,101,010 samples, 1.06%)</title><rect x="738.1" y="325" width="12.5" height="15.0" fill="rgb(213,39,9)" rx="2" ry="2" />
<text  x="741.09" y="335.5" ></text>
</g>
<g >
<title>[kube-apiserver] (111,111,110 samples, 11.70%)</title><rect x="1051.9" y="661" width="138.1" height="15.0" fill="rgb(240,162,38)" rx="2" ry="2" />
<text  x="1054.91" y="671.5" >[kube-apiserver]</text>
</g>
<g >
<title>[kube-apiserver] (70,707,070 samples, 7.45%)</title><rect x="1102.1" y="373" width="87.9" height="15.0" fill="rgb(240,162,38)" rx="2" ry="2" />
<text  x="1105.13" y="383.5" >[kube-apis..</text>
</g>
<g >
<title>[[kernel.kallsyms]] (10,101,010 samples, 1.06%)</title><rect x="800.9" y="789" width="12.5" height="15.0" fill="rgb(213,39,9)" rx="2" ry="2" />
<text  x="803.85" y="799.5" ></text>
</g>
<g >
<title>[kube-apiserver] (60,606,060 samples, 6.38%)</title><rect x="1114.7" y="261" width="75.3" height="15.0" fill="rgb(240,162,38)" rx="2" ry="2" />
<text  x="1117.68" y="271.5" >[kube-ap..</text>
</g>
<g >
<title>[kube-apiserver] (818,181,810 samples, 86.17%)</title><rect x="173.2" y="965" width="1016.8" height="15.0" fill="rgb(240,162,38)" rx="2" ry="2" />
<text  x="176.19" y="975.5" >[kube-apiserver]</text>
</g>
<g >
<title>[[kernel.kallsyms]] (10,101,010 samples, 1.06%)</title><rect x="738.1" y="629" width="12.5" height="15.0" fill="rgb(213,39,9)" rx="2" ry="2" />
<text  x="741.09" y="639.5" ></text>
</g>
<g >
<title>[kube-apiserver] (757,575,750 samples, 79.79%)</title><rect x="248.5" y="917" width="941.5" height="15.0" fill="rgb(240,162,38)" rx="2" ry="2" />
<text  x="251.51" y="927.5" >[kube-apiserver]</text>
</g>
<g >
<title>[[kernel.kallsyms]] (10,101,010 samples, 1.06%)</title><rect x="800.9" y="773" width="12.5" height="15.0" fill="rgb(213,39,9)" rx="2" ry="2" />
<text  x="803.85" y="783.5" ></text>
</g>
<g >
<title>[kube-apiserver] (60,606,060 samples, 6.38%)</title><rect x="1114.7" y="197" width="75.3" height="15.0" fill="rgb(240,162,38)" rx="2" ry="2" />
<text  x="1117.68" y="207.5" >[kube-ap..</text>
</g>
<g >
<title>[[kernel.kallsyms]] (10,101,010 samples, 1.06%)</title><rect x="1089.6" y="437" width="12.5" height="15.0" fill="rgb(213,39,9)" rx="2" ry="2" />
<text  x="1092.57" y="447.5" ></text>
</g>
<g >
<title>[kube-apiserver] (191,919,190 samples, 20.21%)</title><rect x="951.5" y="709" width="238.5" height="15.0" fill="rgb(240,162,38)" rx="2" ry="2" />
<text  x="954.49" y="719.5" >[kube-apiserver]</text>
</g>
<g >
<title>[[kernel.kallsyms]] (90,909,090 samples, 9.57%)</title><rect x="524.7" y="757" width="113.0" height="15.0" fill="rgb(213,39,9)" rx="2" ry="2" />
<text  x="527.68" y="767.5" >[[kernel.kall..</text>
</g>
<g >
<title>[[kernel.kallsyms]] (10,101,010 samples, 1.06%)</title><rect x="800.9" y="821" width="12.5" height="15.0" fill="rgb(213,39,9)" rx="2" ry="2" />
<text  x="803.85" y="831.5" ></text>
</g>
<g >
<title>[kube-apiserver] (60,606,060 samples, 6.38%)</title><rect x="1114.7" y="245" width="75.3" height="15.0" fill="rgb(240,162,38)" rx="2" ry="2" />
<text  x="1117.68" y="255.5" >[kube-ap..</text>
</g>
<g >
<title>[kube-apiserver] (70,707,070 samples, 7.45%)</title><rect x="1102.1" y="453" width="87.9" height="15.0" fill="rgb(240,162,38)" rx="2" ry="2" />
<text  x="1105.13" y="463.5" >[kube-apis..</text>
</g>
<g >
<title>[kube-apiserver] (101,010,100 samples, 10.64%)</title><rect x="1064.5" y="501" width="125.5" height="15.0" fill="rgb(240,162,38)" rx="2" ry="2" />
<text  x="1067.47" y="511.5" >[kube-apiserver]</text>
</g>
<g >
<title>all (949,494,940 samples, 100%)</title><rect x="10.0" y="1093" width="1180.0" height="15.0" fill="rgb(213,39,9)" rx="2" ry="2" />
<text  x="13.00" y="1103.5" ></text>
</g>
<g >
<title>[[kernel.kallsyms]] (10,101,010 samples, 1.06%)</title><rect x="738.1" y="517" width="12.5" height="15.0" fill="rgb(213,39,9)" rx="2" ry="2" />
<text  x="741.09" y="527.5" ></text>
</g>
<g >
<title>[[kernel.kallsyms]] (10,101,010 samples, 1.06%)</title><rect x="863.6" y="757" width="12.6" height="15.0" fill="rgb(213,39,9)" rx="2" ry="2" />
<text  x="866.62" y="767.5" ></text>
</g>
<g >
<title>[[kernel.kallsyms]] (10,101,010 samples, 1.06%)</title><rect x="1039.4" y="645" width="12.5" height="15.0" fill="rgb(213,39,9)" rx="2" ry="2" />
<text  x="1042.36" y="655.5" ></text>
</g>
<g >
<title>[[kernel.kallsyms]] (10,101,010 samples, 1.06%)</title><rect x="738.1" y="565" width="12.5" height="15.0" fill="rgb(213,39,9)" rx="2" ry="2" />
<text  x="741.09" y="575.5" ></text>
</g>
<g >
<title>[[kernel.kallsyms]] (161,616,160 samples, 17.02%)</title><rect x="436.8" y="869" width="200.9" height="15.0" fill="rgb(213,39,9)" rx="2" ry="2" />
<text  x="439.81" y="879.5" >[[kernel.kallsyms]]</text>
</g>
<g >
<title>[[kernel.kallsyms]] (10,101,010 samples, 1.06%)</title><rect x="738.1" y="373" width="12.5" height="15.0" fill="rgb(213,39,9)" rx="2" ry="2" />
<text  x="741.09" y="383.5" ></text>
</g>
<g >
<title>[[kernel.kallsyms]] (10,101,010 samples, 1.06%)</title><rect x="863.6" y="789" width="12.6" height="15.0" fill="rgb(213,39,9)" rx="2" ry="2" />
<text  x="866.62" y="799.5" ></text>
</g>
<g >
<title>[kube-apiserver] (40,404,040 samples, 4.26%)</title><rect x="1139.8" y="165" width="50.2" height="15.0" fill="rgb(240,162,38)" rx="2" ry="2" />
<text  x="1142.79" y="175.5" >[kube..</text>
</g>
<g >
<title>[kube-apiserver] (20,202,020 samples, 2.13%)</title><rect x="1164.9" y="69" width="25.1" height="15.0" fill="rgb(240,162,38)" rx="2" ry="2" />
<text  x="1167.89" y="79.5" >[..</text>
</g>
<g >
<title>[[kernel.kallsyms]] (90,909,090 samples, 9.57%)</title><rect x="524.7" y="741" width="113.0" height="15.0" fill="rgb(213,39,9)" rx="2" ry="2" />
<text  x="527.68" y="751.5" >[[kernel.kall..</text>
</g>
<g >
<title>[kube-apiserver] (60,606,060 samples, 6.38%)</title><rect x="1114.7" y="213" width="75.3" height="15.0" fill="rgb(240,162,38)" rx="2" ry="2" />
<text  x="1117.68" y="223.5" >[kube-ap..</text>
</g>
<g >
<title>[[kernel.kallsyms]] (10,101,010 samples, 1.06%)</title><rect x="876.2" y="821" width="12.5" height="15.0" fill="rgb(213,39,9)" rx="2" ry="2" />
<text  x="879.17" y="831.5" ></text>
</g>
<g >
<title>[kube-apiserver] (111,111,110 samples, 11.70%)</title><rect x="1051.9" y="645" width="138.1" height="15.0" fill="rgb(240,162,38)" rx="2" ry="2" />
<text  x="1054.91" y="655.5" >[kube-apiserver]</text>
</g>
<g >
<title>[kube-apiserver] (111,111,110 samples, 11.70%)</title><rect x="1051.9" y="629" width="138.1" height="15.0" fill="rgb(240,162,38)" rx="2" ry="2" />
<text  x="1054.91" y="639.5" >[kube-apiserver]</text>
</g>
<g >
<title>[kube-apiserver] (30,303,030 samples, 3.19%)</title><rect x="1152.3" y="117" width="37.7" height="15.0" fill="rgb(240,162,38)" rx="2" ry="2" />
<text  x="1155.34" y="127.5" >[ku..</text>
</g>
<g >
<title>[kube-apiserver] (101,010,100 samples, 10.64%)</title><rect x="1064.5" y="549" width="125.5" height="15.0" fill="rgb(240,162,38)" rx="2" ry="2" />
<text  x="1067.47" y="559.5" >[kube-apiserver]</text>
</g>
<g >
<title>[[kernel.kallsyms]] (10,101,010 samples, 1.06%)</title><rect x="800.9" y="853" width="12.5" height="15.0" fill="rgb(213,39,9)" rx="2" ry="2" />
<text  x="803.85" y="863.5" ></text>
</g>
<g >
<title>[[kernel.kallsyms]] (10,101,010 samples, 1.06%)</title><rect x="876.2" y="709" width="12.5" height="15.0" fill="rgb(213,39,9)" rx="2" ry="2" />
<text  x="879.17" y="719.5" ></text>
</g>
<g >
<title>[[kernel.kallsyms]] (141,414,140 samples, 14.89%)</title><rect x="461.9" y="837" width="175.8" height="15.0" fill="rgb(213,39,9)" rx="2" ry="2" />
<text  x="464.91" y="847.5" >[[kernel.kallsyms]]</text>
</g>
<g >
<title>[kube-apiserver] (232,323,230 samples, 24.47%)</title><rect x="901.3" y="789" width="288.7" height="15.0" fill="rgb(240,162,38)" rx="2" ry="2" />
<text  x="904.28" y="799.5" >[kube-apiserver]</text>
</g>
<g >
<title>[kube-apiserver] (40,404,040 samples, 4.26%)</title><rect x="1139.8" y="149" width="50.2" height="15.0" fill="rgb(240,162,38)" rx="2" ry="2" />
<text  x="1142.79" y="159.5" >[kube..</text>
</g>
<g >
<title>[kube-apiserver] (111,111,110 samples, 11.70%)</title><rect x="1051.9" y="565" width="138.1" height="15.0" fill="rgb(240,162,38)" rx="2" ry="2" />
<text  x="1054.91" y="575.5" >[kube-apiserver]</text>
</g>
<g >
<title>[kube-apiserver] (777,777,770 samples, 81.91%)</title><rect x="223.4" y="949" width="966.6" height="15.0" fill="rgb(240,162,38)" rx="2" ry="2" />
<text  x="226.40" y="959.5" >[kube-apiserver]</text>
</g>
<g >
<title>[[kernel.kallsyms]] (10,101,010 samples, 1.06%)</title><rect x="738.1" y="389" width="12.5" height="15.0" fill="rgb(213,39,9)" rx="2" ry="2" />
<text  x="741.09" y="399.5" ></text>
</g>
<g >
<title>[[kernel.kallsyms]] (10,101,010 samples, 1.06%)</title><rect x="876.2" y="773" width="12.5" height="15.0" fill="rgb(213,39,9)" rx="2" ry="2" />
<text  x="879.17" y="783.5" ></text>
</g>
<g >
<title>[kube-apiserver] (80,808,080 samples, 8.51%)</title><rect x="1089.6" y="469" width="100.4" height="15.0" fill="rgb(240,162,38)" rx="2" ry="2" />
<text  x="1092.57" y="479.5" >[kube-apiser..</text>
</g>
<g >
<title>[[kernel.kallsyms]] (10,101,010 samples, 1.06%)</title><rect x="738.1" y="533" width="12.5" height="15.0" fill="rgb(213,39,9)" rx="2" ry="2" />
<text  x="741.09" y="543.5" ></text>
</g>
<g >
<title>[kube-apiserver] (868,686,860 samples, 91.49%)</title><rect x="110.4" y="1045" width="1079.6" height="15.0" fill="rgb(240,162,38)" rx="2" ry="2" />
<text  x="113.43" y="1055.5" >[kube-apiserver]</text>
</g>
<g >
<title>[[kernel.kallsyms]] (10,101,010 samples, 1.06%)</title><rect x="738.1" y="357" width="12.5" height="15.0" fill="rgb(213,39,9)" rx="2" ry="2" />
<text  x="741.09" y="367.5" ></text>
</g>
<g >
<title>[[kernel.kallsyms]] (60,606,060 samples, 6.38%)</title><rect x="675.3" y="709" width="75.3" height="15.0" fill="rgb(213,39,9)" rx="2" ry="2" />
<text  x="678.32" y="719.5" >[[kernel..</text>
</g>
<g >
<title>[kube-apiserver] (757,575,750 samples, 79.79%)</title><rect x="248.5" y="933" width="941.5" height="15.0" fill="rgb(240,162,38)" rx="2" ry="2" />
<text  x="251.51" y="943.5" >[kube-apiserver]</text>
</g>
<g >
<title>[[kernel.kallsyms]] (161,616,160 samples, 17.02%)</title><rect x="436.8" y="885" width="200.9" height="15.0" fill="rgb(213,39,9)" rx="2" ry="2" />
<text  x="439.81" y="895.5" >[[kernel.kallsyms]]</text>
</g>
<g >
<title>[[kernel.kallsyms]] (10,101,010 samples, 1.06%)</title><rect x="863.6" y="773" width="12.6" height="15.0" fill="rgb(213,39,9)" rx="2" ry="2" />
<text  x="866.62" y="783.5" ></text>
</g>
<g >
<title>[kube-apiserver] (60,606,060 samples, 6.38%)</title><rect x="1114.7" y="325" width="75.3" height="15.0" fill="rgb(240,162,38)" rx="2" ry="2" />
<text  x="1117.68" y="335.5" >[kube-ap..</text>
</g>
<g >
<title>[[kernel.kallsyms]] (10,101,010 samples, 1.06%)</title><rect x="738.1" y="485" width="12.5" height="15.0" fill="rgb(213,39,9)" rx="2" ry="2" />
<text  x="741.09" y="495.5" ></text>
</g>
<g >
<title>[[kernel.kallsyms]] (10,101,010 samples, 1.06%)</title><rect x="738.1" y="677" width="12.5" height="15.0" fill="rgb(213,39,9)" rx="2" ry="2" />
<text  x="741.09" y="687.5" ></text>
</g>
<g >
<title>[kube-apiserver] (10,101,010 samples, 1.06%)</title><rect x="1177.4" y="53" width="12.6" height="15.0" fill="rgb(240,162,38)" rx="2" ry="2" />
<text  x="1180.45" y="63.5" ></text>
</g>
<g >
<title>[[kernel.kallsyms]] (10,101,010 samples, 1.06%)</title><rect x="738.1" y="613" width="12.5" height="15.0" fill="rgb(213,39,9)" rx="2" ry="2" />
<text  x="741.09" y="623.5" ></text>
</g>
<g >
<title>[[kernel.kallsyms]] (10,101,010 samples, 1.06%)</title><rect x="1051.9" y="549" width="12.6" height="15.0" fill="rgb(213,39,9)" rx="2" ry="2" />
<text  x="1054.91" y="559.5" ></text>
</g>
<g >
<title>[kube-apiserver] (242,424,240 samples, 25.53%)</title><rect x="888.7" y="805" width="301.3" height="15.0" fill="rgb(240,162,38)" rx="2" ry="2" />
<text  x="891.72" y="815.5" >[kube-apiserver]</text>
</g>
<g >
<title>[[kernel.kallsyms]] (10,101,010 samples, 1.06%)</title><rect x="738.1" y="437" width="12.5" height="15.0" fill="rgb(213,39,9)" rx="2" ry="2" />
<text  x="741.09" y="447.5" ></text>
</g>
<g >
<title>[kube-apiserver] (838,383,830 samples, 88.30%)</title><rect x="148.1" y="981" width="1041.9" height="15.0" fill="rgb(240,162,38)" rx="2" ry="2" />
<text  x="151.09" y="991.5" >[kube-apiserver]</text>
</g>
<g >
<title>[[kernel.kallsyms]] (60,606,060 samples, 6.38%)</title><rect x="675.3" y="693" width="75.3" height="15.0" fill="rgb(213,39,9)" rx="2" ry="2" />
<text  x="678.32" y="703.5" >[[kernel..</text>
</g>
<g >
<title>[[kernel.kallsyms]] (10,101,010 samples, 1.06%)</title><rect x="738.1" y="293" width="12.5" height="15.0" fill="rgb(213,39,9)" rx="2" ry="2" />
<text  x="741.09" y="303.5" ></text>
</g>
<g >
<title>[kube-apiserver] (60,606,060 samples, 6.38%)</title><rect x="1114.7" y="277" width="75.3" height="15.0" fill="rgb(240,162,38)" rx="2" ry="2" />
<text  x="1117.68" y="287.5" >[kube-ap..</text>
</g>
<g >
<title>[kube-apiserver] (60,606,060 samples, 6.38%)</title><rect x="1114.7" y="229" width="75.3" height="15.0" fill="rgb(240,162,38)" rx="2" ry="2" />
<text  x="1117.68" y="239.5" >[kube-ap..</text>
</g>
<g >
<title>[[kernel.kallsyms]] (10,101,010 samples, 1.06%)</title><rect x="863.6" y="741" width="12.6" height="15.0" fill="rgb(213,39,9)" rx="2" ry="2" />
<text  x="866.62" y="751.5" ></text>
</g>
<g >
<title>[[kernel.kallsyms]] (101,010,100 samples, 10.64%)</title><rect x="512.1" y="773" width="125.6" height="15.0" fill="rgb(213,39,9)" rx="2" ry="2" />
<text  x="515.13" y="783.5" >[[kernel.kallsy..</text>
</g>
<g >
<title>[[kernel.kallsyms]] (10,101,010 samples, 1.06%)</title><rect x="738.1" y="261" width="12.5" height="15.0" fill="rgb(213,39,9)" rx="2" ry="2" />
<text  x="741.09" y="271.5" ></text>
</g>
<g >
<title>[[kernel.kallsyms]] (80,808,080 samples, 8.51%)</title><rect x="650.2" y="773" width="100.4" height="15.0" fill="rgb(213,39,9)" rx="2" ry="2" />
<text  x="653.21" y="783.5" >[[kernel.kal..</text>
</g>
<g >
<title>kube-apiserver (949,494,940 samples, 100.00%)</title><rect x="10.0" y="1077" width="1180.0" height="15.0" fill="rgb(229,110,26)" rx="2" ry="2" />
<text  x="13.00" y="1087.5" >kube-apiserver</text>
</g>
<g >
<title>[kube-apiserver] (353,535,350 samples, 37.23%)</title><rect x="750.6" y="869" width="439.4" height="15.0" fill="rgb(240,162,38)" rx="2" ry="2" />
<text  x="753.64" y="879.5" >[kube-apiserver]</text>
</g>
<g >
<title>[[kernel.kallsyms]] (10,101,010 samples, 1.06%)</title><rect x="738.1" y="341" width="12.5" height="15.0" fill="rgb(213,39,9)" rx="2" ry="2" />
<text  x="741.09" y="351.5" ></text>
</g>
<g >
<title>[[kernel.kallsyms]] (10,101,010 samples, 1.06%)</title><rect x="863.6" y="725" width="12.6" height="15.0" fill="rgb(213,39,9)" rx="2" ry="2" />
<text  x="866.62" y="735.5" ></text>
</g>
<g >
<title>[[kernel.kallsyms]] (10,101,010 samples, 1.06%)</title><rect x="876.2" y="757" width="12.5" height="15.0" fill="rgb(213,39,9)" rx="2" ry="2" />
<text  x="879.17" y="767.5" ></text>
</g>
<g >
<title>[[kernel.kallsyms]] (10,101,010 samples, 1.06%)</title><rect x="1039.4" y="661" width="12.5" height="15.0" fill="rgb(213,39,9)" rx="2" ry="2" />
<text  x="1042.36" y="671.5" ></text>
</g>
<g >
<title>[kube-apiserver] (60,606,060 samples, 6.38%)</title><rect x="1114.7" y="309" width="75.3" height="15.0" fill="rgb(240,162,38)" rx="2" ry="2" />
<text  x="1117.68" y="319.5" >[kube-ap..</text>
</g>
<g >
<title>[[kernel.kallsyms]] (10,101,010 samples, 1.06%)</title><rect x="738.1" y="581" width="12.5" height="15.0" fill="rgb(213,39,9)" rx="2" ry="2" />
<text  x="741.09" y="591.5" ></text>
</g>
<g >
<title>[[kernel.kallsyms]] (10,101,010 samples, 1.06%)</title><rect x="738.1" y="309" width="12.5" height="15.0" fill="rgb(213,39,9)" rx="2" ry="2" />
<text  x="741.09" y="319.5" ></text>
</g>
<g >
<title>[[kernel.kallsyms]] (111,111,110 samples, 11.70%)</title><rect x="499.6" y="805" width="138.1" height="15.0" fill="rgb(213,39,9)" rx="2" ry="2" />
<text  x="502.57" y="815.5" >[[kernel.kallsyms]]</text>
</g>
<g >
<title>[[kernel.kallsyms]] (10,101,010 samples, 1.06%)</title><rect x="1089.6" y="453" width="12.5" height="15.0" fill="rgb(213,39,9)" rx="2" ry="2" />
<text  x="1092.57" y="463.5" ></text>
</g>
<g >
<title>[[kernel.kallsyms]] (80,808,080 samples, 8.51%)</title><rect x="650.2" y="805" width="100.4" height="15.0" fill="rgb(213,39,9)" rx="2" ry="2" />
<text  x="653.21" y="815.5" >[[kernel.kal..</text>
</g>
<g >
<title>[[kernel.kallsyms]] (10,101,010 samples, 1.06%)</title><rect x="738.1" y="501" width="12.5" height="15.0" fill="rgb(213,39,9)" rx="2" ry="2" />
<text  x="741.09" y="511.5" ></text>
</g>
<g >
<title>[[kernel.kallsyms]] (10,101,010 samples, 1.06%)</title><rect x="738.1" y="469" width="12.5" height="15.0" fill="rgb(213,39,9)" rx="2" ry="2" />
<text  x="741.09" y="479.5" ></text>
</g>
<g >
<title>[kube-apiserver] (252,525,250 samples, 26.60%)</title><rect x="876.2" y="837" width="313.8" height="15.0" fill="rgb(240,162,38)" rx="2" ry="2" />
<text  x="879.17" y="847.5" >[kube-apiserver]</text>
</g>
<g >
<title>[[kernel.kallsyms]] (111,111,110 samples, 11.70%)</title><rect x="499.6" y="789" width="138.1" height="15.0" fill="rgb(213,39,9)" rx="2" ry="2" />
<text  x="502.57" y="799.5" >[[kernel.kallsyms]]</text>
</g>
<g >
<title>[kube-apiserver] (70,707,070 samples, 7.45%)</title><rect x="1102.1" y="389" width="87.9" height="15.0" fill="rgb(240,162,38)" rx="2" ry="2" />
<text  x="1105.13" y="399.5" >[kube-apis..</text>
</g>
<g >
<title>[[kernel.kallsyms]] (10,101,010 samples, 1.06%)</title><rect x="863.6" y="837" width="12.6" height="15.0" fill="rgb(213,39,9)" rx="2" ry="2" />
<text  x="866.62" y="847.5" ></text>
</g>
<g >
<title>[kube-apiserver] (60,606,060 samples, 6.38%)</title><rect x="1114.7" y="293" width="75.3" height="15.0" fill="rgb(240,162,38)" rx="2" ry="2" />
<text  x="1117.68" y="303.5" >[kube-ap..</text>
</g>
<g >
<title>[[kernel.kallsyms]] (80,808,080 samples, 8.51%)</title><rect x="650.2" y="869" width="100.4" height="15.0" fill="rgb(213,39,9)" rx="2" ry="2" />
<text  x="653.21" y="879.5" >[[kernel.kal..</text>
</g>
<g >
<title>[[kernel.kallsyms]] (10,101,010 samples, 1.06%)</title><rect x="1051.9" y="533" width="12.6" height="15.0" fill="rgb(213,39,9)" rx="2" ry="2" />
<text  x="1054.91" y="543.5" ></text>
</g>
<g >
<title>[kube-apiserver] (90,909,090 samples, 9.57%)</title><rect x="1077.0" y="485" width="113.0" height="15.0" fill="rgb(240,162,38)" rx="2" ry="2" />
<text  x="1080.02" y="495.5" >[kube-apiserv..</text>
</g>
<g >
<title>[kube-apiserver] (868,686,860 samples, 91.49%)</title><rect x="110.4" y="1029" width="1079.6" height="15.0" fill="rgb(240,162,38)" rx="2" ry="2" />
<text  x="113.43" y="1039.5" >[kube-apiserver]</text>
</g>
<g >
<title>[[kernel.kallsyms]] (10,101,010 samples, 1.06%)</title><rect x="738.1" y="277" width="12.5" height="15.0" fill="rgb(213,39,9)" rx="2" ry="2" />
<text  x="741.09" y="287.5" ></text>
</g>
<g >
<title>[kube-apiserver] (242,424,240 samples, 25.53%)</title><rect x="888.7" y="821" width="301.3" height="15.0" fill="rgb(240,162,38)" rx="2" ry="2" />
<text  x="891.72" y="831.5" >[kube-apiserver]</text>
</g>
<g >
<title>[[kernel.kallsyms]] (10,101,010 samples, 1.06%)</title><rect x="738.1" y="661" width="12.5" height="15.0" fill="rgb(213,39,9)" rx="2" ry="2" />
<text  x="741.09" y="671.5" ></text>
</g>
<g >
<title>[[kernel.kallsyms]] (80,808,080 samples, 8.51%)</title><rect x="650.2" y="757" width="100.4" height="15.0" fill="rgb(213,39,9)" rx="2" ry="2" />
<text  x="653.21" y="767.5" >[[kernel.kal..</text>
</g>
<g >
<title>[kube-apiserver] (131,313,130 samples, 13.83%)</title><rect x="1026.8" y="677" width="163.2" height="15.0" fill="rgb(240,162,38)" rx="2" ry="2" />
<text  x="1029.81" y="687.5" >[kube-apiserver]</text>
</g>
<g >
<title>[kube-apiserver] (212,121,210 samples, 22.34%)</title><rect x="926.4" y="741" width="263.6" height="15.0" fill="rgb(240,162,38)" rx="2" ry="2" />
<text  x="929.38" y="751.5" >[kube-apiserver]</text>
</g>
<g >
<title>[[kernel.kallsyms]] (10,101,010 samples, 1.06%)</title><rect x="738.1" y="453" width="12.5" height="15.0" fill="rgb(213,39,9)" rx="2" ry="2" />
<text  x="741.09" y="463.5" ></text>
</g>
<g >
<title>[[kernel.kallsyms]] (10,101,010 samples, 1.06%)</title><rect x="876.2" y="805" width="12.5" height="15.0" fill="rgb(213,39,9)" rx="2" ry="2" />
<text  x="879.17" y="815.5" ></text>
</g>
<g >
<title>[[kernel.kallsyms]] (70,707,070 samples, 7.45%)</title><rect x="662.8" y="725" width="87.8" height="15.0" fill="rgb(213,39,9)" rx="2" ry="2" />
<text  x="665.77" y="735.5" >[[kernel.k..</text>
</g>
<g >
<title>[[kernel.kallsyms]] (10,101,010 samples, 1.06%)</title><rect x="800.9" y="837" width="12.5" height="15.0" fill="rgb(213,39,9)" rx="2" ry="2" />
<text  x="803.85" y="847.5" ></text>
</g>
<g >
<title>[[kernel.kallsyms]] (10,101,010 samples, 1.06%)</title><rect x="738.1" y="229" width="12.5" height="15.0" fill="rgb(213,39,9)" rx="2" ry="2" />
<text  x="741.09" y="239.5" ></text>
</g>
<g >
<title>[kube-apiserver] (868,686,860 samples, 91.49%)</title><rect x="110.4" y="1013" width="1079.6" height="15.0" fill="rgb(240,162,38)" rx="2" ry="2" />
<text  x="113.43" y="1023.5" >[kube-apiserver]</text>
</g>
<g >
<title>[kube-apiserver] (30,303,030 samples, 3.19%)</title><rect x="1152.3" y="101" width="37.7" height="15.0" fill="rgb(240,162,38)" rx="2" ry="2" />
<text  x="1155.34" y="111.5" >[ku..</text>
</g>
<g >
<title>[[kernel.kallsyms]] (131,313,130 samples, 13.83%)</title><rect x="474.5" y="821" width="163.2" height="15.0" fill="rgb(213,39,9)" rx="2" ry="2" />
<text  x="477.47" y="831.5" >[[kernel.kallsyms]]</text>
</g>
<g >
<title>[kube-apiserver] (70,707,070 samples, 7.45%)</title><rect x="1102.1" y="437" width="87.9" height="15.0" fill="rgb(240,162,38)" rx="2" ry="2" />
<text  x="1105.13" y="447.5" >[kube-apis..</text>
</g>
<g >
<title>[kube-apiserver] (111,111,110 samples, 11.70%)</title><rect x="1051.9" y="613" width="138.1" height="15.0" fill="rgb(240,162,38)" rx="2" ry="2" />
<text  x="1054.91" y="623.5" >[kube-apiserver]</text>
</g>
<g >
<title>[[kernel.kallsyms]] (151,515,150 samples, 15.96%)</title><rect x="449.4" y="853" width="188.3" height="15.0" fill="rgb(213,39,9)" rx="2" ry="2" />
<text  x="452.36" y="863.5" >[[kernel.kallsyms]]</text>
</g>
<g >
<title>[kube-apiserver] (848,484,840 samples, 89.36%)</title><rect x="135.5" y="997" width="1054.5" height="15.0" fill="rgb(240,162,38)" rx="2" ry="2" />
<text  x="138.53" y="1007.5" >[kube-apiserver]</text>
</g>
<g >
<title>[kube-apiserver] (70,707,070 samples, 7.45%)</title><rect x="1102.1" y="357" width="87.9" height="15.0" fill="rgb(240,162,38)" rx="2" ry="2" />
<text  x="1105.13" y="367.5" >[kube-apis..</text>
</g>
<g >
<title>[[kernel.kallsyms]] (10,101,010 samples, 1.06%)</title><rect x="1051.9" y="501" width="12.6" height="15.0" fill="rgb(213,39,9)" rx="2" ry="2" />
<text  x="1054.91" y="511.5" ></text>
</g>
<g >
<title>[kube-apiserver] (101,010,100 samples, 10.64%)</title><rect x="1064.5" y="517" width="125.5" height="15.0" fill="rgb(240,162,38)" rx="2" ry="2" />
<text  x="1067.47" y="527.5" >[kube-apiserver]</text>
</g>
<g >
<title>[kube-apiserver] (161,616,160 samples, 17.02%)</title><rect x="989.1" y="693" width="200.9" height="15.0" fill="rgb(240,162,38)" rx="2" ry="2" />
<text  x="992.15" y="703.5" >[kube-apiserver]</text>
</g>
<g >
<title>[kube-apiserver] (20,202,020 samples, 2.13%)</title><rect x="1164.9" y="85" width="25.1" height="15.0" fill="rgb(240,162,38)" rx="2" ry="2" />
<text  x="1167.89" y="95.5" >[..</text>
</g>
<g >
<title>[kube-apiserver] (70,707,070 samples, 7.45%)</title><rect x="1102.1" y="405" width="87.9" height="15.0" fill="rgb(240,162,38)" rx="2" ry="2" />
<text  x="1105.13" y="415.5" >[kube-apis..</text>
</g>
<g >
<title>[kube-apiserver] (30,303,030 samples, 3.19%)</title><rect x="1152.3" y="133" width="37.7" height="15.0" fill="rgb(240,162,38)" rx="2" ry="2" />
<text  x="1155.34" y="143.5" >[ku..</text>
</g>
<g >
<title>[[kernel.kallsyms]] (10,101,010 samples, 1.06%)</title><rect x="876.2" y="725" width="12.5" height="15.0" fill="rgb(213,39,9)" rx="2" ry="2" />
<text  x="879.17" y="735.5" ></text>
</g>
<g >
<title>[[kernel.kallsyms]] (10,101,010 samples, 1.06%)</title><rect x="738.1" y="421" width="12.5" height="15.0" fill="rgb(213,39,9)" rx="2" ry="2" />
<text  x="741.09" y="431.5" ></text>
</g>
<g >
<title>[[kernel.kallsyms]] (10,101,010 samples, 1.06%)</title><rect x="738.1" y="549" width="12.5" height="15.0" fill="rgb(213,39,9)" rx="2" ry="2" />
<text  x="741.09" y="559.5" ></text>
</g>
<g >
<title>[[kernel.kallsyms]] (10,101,010 samples, 1.06%)</title><rect x="876.2" y="741" width="12.5" height="15.0" fill="rgb(213,39,9)" rx="2" ry="2" />
<text  x="879.17" y="751.5" ></text>
</g>
<g >
<title>[[kernel.kallsyms]] (10,101,010 samples, 1.06%)</title><rect x="738.1" y="405" width="12.5" height="15.0" fill="rgb(213,39,9)" rx="2" ry="2" />
<text  x="741.09" y="415.5" ></text>
</g>
<g >
<title>[kube-apiserver] (444,444,440 samples, 46.81%)</title><rect x="637.7" y="885" width="552.3" height="15.0" fill="rgb(240,162,38)" rx="2" ry="2" />
<text  x="640.66" y="895.5" >[kube-apiserver]</text>
</g>
<g >
<title>[[kernel.kallsyms]] (10,101,010 samples, 1.06%)</title><rect x="800.9" y="741" width="12.5" height="15.0" fill="rgb(213,39,9)" rx="2" ry="2" />
<text  x="803.85" y="751.5" ></text>
</g>
<g >
<title>[[kernel.kallsyms]] (10,101,010 samples, 1.06%)</title><rect x="876.2" y="789" width="12.5" height="15.0" fill="rgb(213,39,9)" rx="2" ry="2" />
<text  x="879.17" y="799.5" ></text>
</g>
<g >
<title>[[kernel.kallsyms]] (90,909,090 samples, 9.57%)</title><rect x="524.7" y="725" width="113.0" height="15.0" fill="rgb(213,39,9)" rx="2" ry="2" />
<text  x="527.68" y="735.5" >[[kernel.kall..</text>
</g>
<g >
<title>[[kernel.kallsyms]] (80,808,080 samples, 8.51%)</title><rect x="650.2" y="853" width="100.4" height="15.0" fill="rgb(213,39,9)" rx="2" ry="2" />
<text  x="653.21" y="863.5" >[[kernel.kal..</text>
</g>
<g >
<title>[kube-apiserver] (101,010,100 samples, 10.64%)</title><rect x="1064.5" y="533" width="125.5" height="15.0" fill="rgb(240,162,38)" rx="2" ry="2" />
<text  x="1067.47" y="543.5" >[kube-apiserver]</text>
</g>
<g >
<title>[[kernel.kallsyms]] (10,101,010 samples, 1.06%)</title><rect x="800.9" y="805" width="12.5" height="15.0" fill="rgb(213,39,9)" rx="2" ry="2" />
<text  x="803.85" y="815.5" ></text>
</g>
<g >
<title>[[kernel.kallsyms]] (80,808,080 samples, 8.51%)</title><rect x="650.2" y="821" width="100.4" height="15.0" fill="rgb(213,39,9)" rx="2" ry="2" />
<text  x="653.21" y="831.5" >[[kernel.kal..</text>
</g>
<g >
<title>[kube-apiserver] (111,111,110 samples, 11.70%)</title><rect x="1051.9" y="581" width="138.1" height="15.0" fill="rgb(240,162,38)" rx="2" ry="2" />
<text  x="1054.91" y="591.5" >[kube-apiserver]</text>
</g>
<g >
<title>[[kernel.kallsyms]] (80,808,080 samples, 8.51%)</title><rect x="650.2" y="837" width="100.4" height="15.0" fill="rgb(213,39,9)" rx="2" ry="2" />
<text  x="653.21" y="847.5" >[[kernel.kal..</text>
</g>
<g >
<title>[kube-apiserver] (868,686,860 samples, 91.49%)</title><rect x="110.4" y="1061" width="1079.6" height="15.0" fill="rgb(240,162,38)" rx="2" ry="2" />
<text  x="113.43" y="1071.5" >[kube-apiserver]</text>
</g>
<g >
<title>[[kernel.kallsyms]] (10,101,010 samples, 1.06%)</title><rect x="800.9" y="757" width="12.5" height="15.0" fill="rgb(213,39,9)" rx="2" ry="2" />
<text  x="803.85" y="767.5" ></text>
</g>
<g >
<title>[kube-apiserver] (666,666,660 samples, 70.21%)</title><rect x="361.5" y="901" width="828.5" height="15.0" fill="rgb(240,162,38)" rx="2" ry="2" />
<text  x="364.49" y="911.5" >[kube-apiserver]</text>
</g>
<g >
<title>[kube-apiserver] (10,101,010 samples, 1.06%)</title><rect x="1177.4" y="37" width="12.6" height="15.0" fill="rgb(240,162,38)" rx="2" ry="2" />
<text  x="1180.45" y="47.5" ></text>
</g>
<g >
<title>[kube-apiserver] (303,030,300 samples, 31.91%)</title><rect x="813.4" y="853" width="376.6" height="15.0" fill="rgb(240,162,38)" rx="2" ry="2" />
<text  x="816.40" y="863.5" >[kube-apiserver]</text>
</g>
<g >
<title>[[kernel.kallsyms]] (10,101,010 samples, 1.06%)</title><rect x="1051.9" y="517" width="12.6" height="15.0" fill="rgb(213,39,9)" rx="2" ry="2" />
<text  x="1054.91" y="527.5" ></text>
</g>
<g >
<title>[[kernel.kallsyms]] (10,101,010 samples, 1.06%)</title><rect x="738.1" y="597" width="12.5" height="15.0" fill="rgb(213,39,9)" rx="2" ry="2" />
<text  x="741.09" y="607.5" ></text>
</g>
<g >
<title>[[kernel.kallsyms]] (10,101,010 samples, 1.06%)</title><rect x="863.6" y="821" width="12.6" height="15.0" fill="rgb(213,39,9)" rx="2" ry="2" />
<text  x="866.62" y="831.5" ></text>
</g>
<g >
<title>[kube-apiserver] (60,606,060 samples, 6.38%)</title><rect x="1114.7" y="341" width="75.3" height="15.0" fill="rgb(240,162,38)" rx="2" ry="2" />
<text  x="1117.68" y="351.5" >[kube-ap..</text>
</g>
<g >
<title>[kube-apiserver] (111,111,110 samples, 11.70%)</title><rect x="1051.9" y="597" width="138.1" height="15.0" fill="rgb(240,162,38)" rx="2" ry="2" />
<text  x="1054.91" y="607.5" >[kube-apiserver]</text>
</g>
<g >
<title>[[kernel.kallsyms]] (10,101,010 samples, 1.06%)</title><rect x="738.1" y="245" width="12.5" height="15.0" fill="rgb(213,39,9)" rx="2" ry="2" />
<text  x="741.09" y="255.5" ></text>
</g>
<g >
<title>[[kernel.kallsyms]] (80,808,080 samples, 8.51%)</title><rect x="650.2" y="789" width="100.4" height="15.0" fill="rgb(213,39,9)" rx="2" ry="2" />
<text  x="653.21" y="799.5" >[[kernel.kal..</text>
</g>
</g>
</svg>
